<mxfile host="app.diagrams.net" agent="Mozilla/5.0 (Macintosh; Intel Mac OS X 10_15_7) AppleWebKit/605.1.15 (KHTML, like Gecko) Version/18.3.1 Safari/605.1.15" version="26.1.1">
  <diagram name="Page-1" id="6yXnvRE_J2DNXVWMnwCN">
    <mxGraphModel dx="826" dy="1135" grid="1" gridSize="10" guides="1" tooltips="1" connect="1" arrows="1" fold="1" page="1" pageScale="1" pageWidth="850" pageHeight="1100" math="0" shadow="0">
      <root>
        <mxCell id="0" />
        <mxCell id="1" parent="0" />
        <mxCell id="8M2KErK0JaGW21zgCXvv-22" style="edgeStyle=orthogonalEdgeStyle;rounded=0;orthogonalLoop=1;jettySize=auto;html=1;exitX=0;exitY=0.5;exitDx=0;exitDy=0;entryX=0.25;entryY=0;entryDx=0;entryDy=0;" edge="1" parent="1" source="8M2KErK0JaGW21zgCXvv-2" target="8M2KErK0JaGW21zgCXvv-2">
          <mxGeometry relative="1" as="geometry">
            <mxPoint x="150" y="130" as="targetPoint" />
            <Array as="points">
              <mxPoint x="60" y="170" />
              <mxPoint x="60" y="120" />
              <mxPoint x="150" y="120" />
            </Array>
          </mxGeometry>
        </mxCell>
        <mxCell id="8M2KErK0JaGW21zgCXvv-23" value="cancel" style="edgeLabel;html=1;align=center;verticalAlign=middle;resizable=0;points=[];" vertex="1" connectable="0" parent="8M2KErK0JaGW21zgCXvv-22">
          <mxGeometry x="0.1704" y="1" relative="1" as="geometry">
            <mxPoint as="offset" />
          </mxGeometry>
        </mxCell>
        <mxCell id="8M2KErK0JaGW21zgCXvv-26" style="edgeStyle=orthogonalEdgeStyle;rounded=0;orthogonalLoop=1;jettySize=auto;html=1;exitX=1;exitY=0.5;exitDx=0;exitDy=0;entryX=0.5;entryY=0;entryDx=0;entryDy=0;" edge="1" parent="1" source="8M2KErK0JaGW21zgCXvv-2" target="8M2KErK0JaGW21zgCXvv-3">
          <mxGeometry relative="1" as="geometry" />
        </mxCell>
        <mxCell id="8M2KErK0JaGW21zgCXvv-27" value="zero/one" style="edgeLabel;html=1;align=center;verticalAlign=middle;resizable=0;points=[];" vertex="1" connectable="0" parent="8M2KErK0JaGW21zgCXvv-26">
          <mxGeometry x="-0.2321" y="-1" relative="1" as="geometry">
            <mxPoint x="7" y="-1" as="offset" />
          </mxGeometry>
        </mxCell>
        <mxCell id="8M2KErK0JaGW21zgCXvv-2" value="Init" style="rounded=1;whiteSpace=wrap;html=1;" vertex="1" parent="1">
          <mxGeometry x="120" y="140" width="120" height="60" as="geometry" />
        </mxCell>
        <mxCell id="8M2KErK0JaGW21zgCXvv-30" value="" style="edgeStyle=orthogonalEdgeStyle;rounded=0;orthogonalLoop=1;jettySize=auto;html=1;" edge="1" parent="1" source="8M2KErK0JaGW21zgCXvv-3" target="8M2KErK0JaGW21zgCXvv-4">
          <mxGeometry relative="1" as="geometry" />
        </mxCell>
        <mxCell id="8M2KErK0JaGW21zgCXvv-31" value="plus" style="edgeLabel;html=1;align=center;verticalAlign=middle;resizable=0;points=[];" vertex="1" connectable="0" parent="8M2KErK0JaGW21zgCXvv-30">
          <mxGeometry x="-0.1691" y="-1" relative="1" as="geometry">
            <mxPoint as="offset" />
          </mxGeometry>
        </mxCell>
        <mxCell id="8M2KErK0JaGW21zgCXvv-32" style="edgeStyle=orthogonalEdgeStyle;rounded=0;orthogonalLoop=1;jettySize=auto;html=1;exitX=1;exitY=0.5;exitDx=0;exitDy=0;" edge="1" parent="1" source="8M2KErK0JaGW21zgCXvv-3">
          <mxGeometry relative="1" as="geometry">
            <mxPoint x="450" y="260" as="targetPoint" />
            <Array as="points">
              <mxPoint x="560" y="290" />
              <mxPoint x="560" y="190" />
              <mxPoint x="450" y="190" />
            </Array>
          </mxGeometry>
        </mxCell>
        <mxCell id="8M2KErK0JaGW21zgCXvv-34" value="zero/one" style="edgeLabel;html=1;align=center;verticalAlign=middle;resizable=0;points=[];" vertex="1" connectable="0" parent="8M2KErK0JaGW21zgCXvv-32">
          <mxGeometry x="0.284" y="-2" relative="1" as="geometry">
            <mxPoint x="-1" as="offset" />
          </mxGeometry>
        </mxCell>
        <mxCell id="8M2KErK0JaGW21zgCXvv-3" value="InputFirstOperand" style="rounded=1;whiteSpace=wrap;html=1;" vertex="1" parent="1">
          <mxGeometry x="365.5" y="260" width="120" height="60" as="geometry" />
        </mxCell>
        <mxCell id="8M2KErK0JaGW21zgCXvv-37" style="edgeStyle=orthogonalEdgeStyle;rounded=0;orthogonalLoop=1;jettySize=auto;html=1;exitX=0.5;exitY=1;exitDx=0;exitDy=0;" edge="1" parent="1" source="8M2KErK0JaGW21zgCXvv-4" target="8M2KErK0JaGW21zgCXvv-8">
          <mxGeometry relative="1" as="geometry" />
        </mxCell>
        <mxCell id="8M2KErK0JaGW21zgCXvv-4" value="WaitforSecondOperand" style="rounded=1;whiteSpace=wrap;html=1;arcSize=28;" vertex="1" parent="1">
          <mxGeometry x="353" y="400" width="145" height="60" as="geometry" />
        </mxCell>
        <mxCell id="8M2KErK0JaGW21zgCXvv-8" value="InputSecondOperand" style="rounded=1;whiteSpace=wrap;html=1;arcSize=29;" vertex="1" parent="1">
          <mxGeometry x="365" y="550" width="120" height="60" as="geometry" />
        </mxCell>
        <mxCell id="8M2KErK0JaGW21zgCXvv-11" style="edgeStyle=orthogonalEdgeStyle;rounded=0;orthogonalLoop=1;jettySize=auto;html=1;exitX=0.5;exitY=0;exitDx=0;exitDy=0;entryX=0.5;entryY=1;entryDx=0;entryDy=0;" edge="1" parent="1" source="8M2KErK0JaGW21zgCXvv-9" target="8M2KErK0JaGW21zgCXvv-10">
          <mxGeometry relative="1" as="geometry" />
        </mxCell>
        <mxCell id="8M2KErK0JaGW21zgCXvv-9" value="DisplayResult" style="rounded=1;whiteSpace=wrap;html=1;" vertex="1" parent="1">
          <mxGeometry x="120" y="550" width="120" height="60" as="geometry" />
        </mxCell>
        <mxCell id="8M2KErK0JaGW21zgCXvv-14" style="edgeStyle=orthogonalEdgeStyle;rounded=0;orthogonalLoop=1;jettySize=auto;html=1;exitX=0.5;exitY=0;exitDx=0;exitDy=0;entryX=0.5;entryY=1;entryDx=0;entryDy=0;" edge="1" parent="1" source="8M2KErK0JaGW21zgCXvv-10" target="8M2KErK0JaGW21zgCXvv-2">
          <mxGeometry relative="1" as="geometry" />
        </mxCell>
        <mxCell id="8M2KErK0JaGW21zgCXvv-15" value="cancel" style="edgeLabel;html=1;align=center;verticalAlign=middle;resizable=0;points=[];" vertex="1" connectable="0" parent="8M2KErK0JaGW21zgCXvv-14">
          <mxGeometry x="-0.0265" y="4" relative="1" as="geometry">
            <mxPoint x="4" as="offset" />
          </mxGeometry>
        </mxCell>
        <mxCell id="8M2KErK0JaGW21zgCXvv-10" value="ResetWait" style="rounded=1;whiteSpace=wrap;html=1;" vertex="1" parent="1">
          <mxGeometry x="120" y="400" width="120" height="60" as="geometry" />
        </mxCell>
        <mxCell id="8M2KErK0JaGW21zgCXvv-19" value="" style="endArrow=classic;html=1;rounded=0;entryX=0.443;entryY=0.037;entryDx=0;entryDy=0;entryPerimeter=0;" edge="1" parent="1" target="8M2KErK0JaGW21zgCXvv-20">
          <mxGeometry width="50" height="50" relative="1" as="geometry">
            <mxPoint x="200" y="300" as="sourcePoint" />
            <mxPoint x="240" y="340" as="targetPoint" />
            <Array as="points" />
          </mxGeometry>
        </mxCell>
        <mxCell id="8M2KErK0JaGW21zgCXvv-20" value="display(0)" style="text;html=1;align=center;verticalAlign=middle;resizable=0;points=[];autosize=1;strokeColor=none;fillColor=none;" vertex="1" parent="1">
          <mxGeometry x="215" y="338" width="80" height="30" as="geometry" />
        </mxCell>
        <mxCell id="8M2KErK0JaGW21zgCXvv-24" value="" style="endArrow=classic;html=1;rounded=0;" edge="1" parent="1">
          <mxGeometry width="50" height="50" relative="1" as="geometry">
            <mxPoint x="80" y="109" as="sourcePoint" />
            <mxPoint x="80" y="60" as="targetPoint" />
            <Array as="points" />
          </mxGeometry>
        </mxCell>
        <mxCell id="8M2KErK0JaGW21zgCXvv-25" value="display(0)" style="text;html=1;align=center;verticalAlign=middle;resizable=0;points=[];autosize=1;strokeColor=none;fillColor=none;" vertex="1" parent="1">
          <mxGeometry x="40" y="38" width="80" height="30" as="geometry" />
        </mxCell>
        <mxCell id="8M2KErK0JaGW21zgCXvv-28" value="" style="endArrow=classic;html=1;rounded=0;" edge="1" parent="1">
          <mxGeometry width="50" height="50" relative="1" as="geometry">
            <mxPoint x="350" y="160" as="sourcePoint" />
            <mxPoint x="350" y="110" as="targetPoint" />
            <Array as="points" />
          </mxGeometry>
        </mxCell>
        <mxCell id="8M2KErK0JaGW21zgCXvv-29" value="display(n)" style="text;html=1;align=center;verticalAlign=middle;resizable=0;points=[];autosize=1;strokeColor=none;fillColor=none;" vertex="1" parent="1">
          <mxGeometry x="310" y="88" width="80" height="30" as="geometry" />
        </mxCell>
        <mxCell id="8M2KErK0JaGW21zgCXvv-35" value="" style="endArrow=classic;html=1;rounded=0;" edge="1" parent="1">
          <mxGeometry width="50" height="50" relative="1" as="geometry">
            <mxPoint x="510" y="160" as="sourcePoint" />
            <mxPoint x="510" y="110" as="targetPoint" />
            <Array as="points">
              <mxPoint x="510" y="180" />
            </Array>
          </mxGeometry>
        </mxCell>
        <mxCell id="8M2KErK0JaGW21zgCXvv-36" value="display(n)" style="text;html=1;align=center;verticalAlign=middle;resizable=0;points=[];autosize=1;strokeColor=none;fillColor=none;" vertex="1" parent="1">
          <mxGeometry x="470" y="88" width="80" height="30" as="geometry" />
        </mxCell>
      </root>
    </mxGraphModel>
  </diagram>
</mxfile>
